<svg xmlns="http://www.w3.org/2000/svg" xmlns:xlink="http://www.w3.org/1999/xlink"><defs><symbol viewBox="0 0 24 24" id="digital"><path fill="#FEE2CC" d="M3.7 17.6h16.5c1.5-.3 4-1.9 3.2-5.7A3.3 3.3 0 0 0 20 9c.4-1.4.5-4.7-3-6.4-4.3-2.2-6.8 2.5-6.8 3.2-1.2-.5-4.3-1-5.3 1.6-.2.2-.2 1-.2 1.7C3.5 9 .8 9.5.5 13c-.4 3.4 2 4.5 3.2 4.6Z" /><path fill="#F68B1E" d="M14.1 16V9.8h-3.7V16H7.2l4.7 6 5-6H14Z" /></symbol><symbol viewBox="0 0 24 24" id="download-app"><path fill="#F68B1E" d="M16.71 2H7.78A1.8 1.8 0 0 0 6 3.82v16.36c0 1 .8 1.82 1.78 1.82h8.93a1.8 1.8 0 0 0 1.79-1.82V3.82a1.8 1.8 0 0 1-1.81 0L16.71 2zm0 16.36H7.78V5.64h8.93v12.72z" /><path fill="#F68B1E" d="M15.06 11.48a.13.13 0 0 1-.08 0h-1.53V7.86a.14.14 0 0 1-.14 0h-2.28c.04-.03.1-.03.14 0v3.53H9.35c.06.02.1.08.1.14l2.78 2.83 2.8-2.83.03-.05zm.2 3.24v2H8.82v-2h6.44z" /></symbol><symbol viewBox="0 0 24 24" id="express"><path fill="#F90" d="M21.9 2.09a.24.24 0 0 0-.3-.06L2.16 12.41c-.1.05-.17.18-.17.31 0 .14.06.27.16.33l5.3 2.18c.1.05.21.04.3-.04l10.71-9.1-8.3 9.29c-.06.07-.2.26-.2.36l-.07 5.93c0 .14.08.27.2.31l.08.02c.08 0 .16-.04.22-.12l1.68-5.3 4.78 1.3c.08.05.17.05.24 0a.35.35 0 0 0 .16-.21L22 2.47a.42.42 0 0 0-.09-.38z" /></symbol><symbol viewBox="0 0 24 24" id="flash-sales"><path fill="#FFBA00" d="m9.77 18.84 2.3-5.3-3.24-.92 5.9-4.76-1.95 4.13 3.3.94-6.3 5.9zm3.85-13.46a1.25 1.25 0 1 1 2.33.9 1.25 1.25 0 0 1-2.33-.9zm6.22 2.98-3.06-5.8c-.25-.46-.8-.68-1.3-.5L9.32 4.34c-.29.1-.52.33-.63.62L4.07 17.02c-.21.55.06 1.17.61 1.38l4.6 1.76 4.6 1.77c.56.21 1.17-.07 1.38-.61L19.9 9.24c.11-.29.1-.61-.05-.88z" /></symbol><symbol viewBox="0 0 24 24" id="jumia-pay"><path fill="#378EF9" d="M14.05 13.68c.28.27.58.5.91.71-1.26 2.95-3.44 4.84-5.8 5.57l-.06.02-.05.02-.06-.02C5.39 18.9 2.18 15.14 2 8.97a20.3 20.3 0 0 1 .25-3.8l.02-.16h.17c2.3 0 4.92-.4 6.53-.98L9.05 4l.06.03c1.6.58 4.23.98 6.52.98h.17c-.6.25-1.17.6-1.64 1.04a21.25 21.25 0 0 1-5-.86l-.05-.02-.06-.02.11 13.66a7.5 7.5 0 0 0 2.54-1.53 9.4 9.4 0 0 0 2.35-3.6" /><path fill="#F90" d="M21.33 7.54a4.17 4.17 0 0 0-1.6-1.5 4.2 4.2 0 0 0-4.99.7 4.3 4.3 0 0 0-1.15 2.13 4.13 4.13 0 0 0 .88 3.5 4.32 4.32 0 0 0 1.24 1.03 4.23 4.23 0 0 0 4.02 0l.18-.1a4.44 4.44 0 0 0 1.31-1.24l.11-.17a4.16 4.16 0 0 0 0-4.35zm-.5 1.15-1.55 1.5.36 2.13-1.92-1-1.92 1 .37-2.13-1.56-1.5 2.15-.32.97-1.93.96 1.93 2.15.32z" /></symbol><symbol viewBox="0 0 90 13" id="jumia-pay-full"><path fill="#434343" d="m7.4 9.5.6.5.8.2h.8l.8.1h1.8c1.2 0 2.2-.2 2.7-.6.6-.4.9-1 .9-1.8V1.6h-1.4v6.2c0 .7-.7 1-2 1h-2.2c-1.3 0-2-.3-2-1V1.6H6.8V8c0 .3 0 .6.2 1 0 .2.2.4.4.6Zm22 .9V2.6c0-.3 0-.5-.2-.7a.7.7 0 0 0-.6-.3c-.3 0-.6.2-.8.5l-4.4 6.5L18.8 2a1 1 0 0 0-.8-.4l-.6.3-.2.6v7.9h1.5V4.3l3.8 5.7a1 1 0 0 0 1.3.3c.2 0 .3-.2.4-.4L28 4.3v6h1.4Zm1.4-8.8h1.4v8.7h-1.4zM43 10.4l-1.5-2.5h-5.2l-1.4 2.5h-1.6L38 2.2c.2-.4.5-.6.8-.6.4 0 .6.2.9.6l4.7 8.2H43Zm-2.3-3.9-1.8-3-1.8 3h3.6ZM4 6.5c0 1.3-.3 2.1-1 2.4-.8.3-1.8.4-2.4.4V11l2.2-.4c1.8-.4 2.6-1.7 2.6-4.1V1.7H4v4.8Z" /><path fill="#09F" d="M65.5 10.7V8.3H70l1.2-.1.8-.4c.2-.2.4-.5.4-.8l.2-1.2v-.7c0-.4 0-.8-.2-1.2 0-.6-.6-1.1-1.2-1.3L70 2.5h-5.7v8.2h1.2Zm5.8-6.3v2.1l-.2.4-.5.2a3 3 0 0 1-.6 0h-4.5V3.7h5.1c.2 0 .3.2.4.3.2 0 .2.2.3.4Zm2.1 6.3 1.1-2h5.3l1.2 2h1.4l-4.3-7.8-.3-.4a1 1 0 0 0-1.2 0l-.3.4-4.3 7.8h1.4Zm5.8-3.2h-4l2-3.7 2 3.7ZM84.5 10.7v-4l-4.3-4.2H82l3.2 3.1 3.3-3.1H90l-4.3 4.2v4h-1.2ZM55.6 7.8l.7.5a7.1 7.1 0 0 1-4.3 4.2h-.1c-2.7-.8-5.1-3.6-5.2-8.3 0-1 0-1.9.2-2.8v-.1h.1c1.7 0 3.7-.3 4.9-.8 1.3.5 3.2.8 5 .8a4 4 0 0 0-1.2.7c-1.3 0-2.7-.3-3.7-.6v10.2c.7-.2 1.3-.6 1.9-1.1.7-.7 1.3-1.6 1.7-2.7Z" /><path fill="#F90" d="m60.9 3 .1.3c.6 1 .6 2.3 0 3.3v.1l-.2.3-.2.2a3.5 3.5 0 0 1-.6.4l-.1.1a3.1 3.1 0 0 1-4-.7l-.1-.3v-.1l-.2-.3a3.2 3.2 0 0 1 .6-3.6h.1a3.5 3.5 0 0 1 .6-.5c1-.5 2-.5 3 0h.1l.2.2.1.1.2.1v.1l.4.4Zm-1.4 2.3 1.2-1.1L59 4l-.7-1.5-.7 1.5-1.6.2 1.1 1.1L57 7l1.5-.7 1.4.7-.3-1.6Z" /></symbol><symbol viewBox="0 0 24 24" id="jumia-star"><path fill="#F90" d="M12.14 2.33a9.6 9.6 0 1 1 .02 19.22 9.6 9.6 0 0 1-.02-19.22zm0 1.44-2.42 4.9-5.42.79 3.92 3.82-.93 5.4 4.85-2.55L17 18.67l-.92-5.4L20 9.46l-5.42-.79-2.43-4.9z" /></symbol><symbol viewBox="0 0 24 24" id="pickup"><path fill="#F90" d="M21.48 13.31c.58.48.64 1.31.13 1.85v.01l-4.25 4.63a3.43 3.43 0 0 1-2.5 1.07H8.22l-1.16 1.09L2 18.05l2.91-2.7a5.9 5.9 0 0 1 6.05-1.14h3.6c.74 0 1.34.56 1.34 1.26s-.6 1.27-1.35 1.27h-2.78c-.25 0-.45.18-.45.42 0 .23.2.42.45.42h3.15c.46 0 .89-.19 1.19-.5l3.4-3.65c.5-.55 1.4-.6 1.97-.12zm-2.64-7.98v7.12h-9V5.33h9zm-4.51 1.12h-.57l-.24.01V8.9H12.1l2.27 2.05 2.23-1.99h-1.27v-2.5h-.99zm-.36-3.37V4.5H9.84l1.53-1.43h2.6zm3.37 0 1.6 1.43H14.8V3.08h2.54z" /></symbol><symbol viewBox="0 0 24 24" id="pickup-colored"><path fill="#F68B1E" fill-rule="evenodd" d="M14.02 3.58h-2.6L9.87 5h4.14V3.58ZM9.88 5.83v7.12h9V5.83h-9Zm6.75 3.63h-1.27v-2.5s-1.83-.02-1.8 0V9.4h-1.43l2.27 2.05 2.23-1.99Zm-1.78-5.88V5h4.13l-1.6-1.43h-2.53ZM3.41 12.5c-.2 0-.37.17-.37.38v6.75c0 .2.17.37.38.37H5c.17 0 .32-.11.36-.27l1.66-5.85a.75.75 0 0 0-.46-.9 8.75 8.75 0 0 0-3.16-.48Z" /><path fill="#FEE2CC" d="M19.54 16.63c-1.5 0-4.5 1.9-6 1.9s-3.18-1.15-3.18-1.15 2.02.37 3.18.37c1.17 0 1.5-.4 1.5-.94 0-1.31-2.23-1.51-3.35-1.68-1.11-.62-1.69-1.1-3.52-1.26l-.06.32-1.5 5.3c1.7.78 4.64 2.01 6.18 2.01 2.25 0 8.25-3 8.25-3.75s-.75-1.12-1.5-1.12Z" /></symbol><symbol viewBox="0 0 24 24" id="price-tag"><path fill="#F7A24B" d="M16.4 5.8a1.8 1.8 0 1 1 3.6 0 1.8 1.8 0 0 1-3.6 0m-4 15.6 9-9c.4-.4.6-.9.6-1.4V4a2 2 0 0 0-2-2h-7a2 2 0 0 0-1.4.6l-9 9a2 2 0 0 0 0 2.8l7 7a2 2 0 0 0 2.8 0" /></symbol><symbol viewBox="0 0 24 24" id="prime"><path fill="#F68B1E" d="M11.04 4.3a1.57 1.57 0 0 1 2.23.4c.52.75.34 1.78-.38 2.3a1.2 1.2 0 0 1-.12.13c-.1 4.94 2.72 5.12 3.04 5.13h.03c2.23.04 3.25-2.34 3.45-2.9a1.68 1.68 0 0 1-.51-1.21c0-.92.71-1.66 1.6-1.66.88 0 1.6.72 1.62 1.62.02.92-.68 1.67-1.57 1.7L18 17.93v.02c0 .58-2.69 1.05-6.01 1.05-3.33 0-6.03-.47-6.03-1.05L3.51 9.8a1.59 1.59 0 0 1-1.12-.57 1.7 1.7 0 0 1 .16-2.33c.67-.6 1.69-.53 2.27.16a1.7 1.7 0 0 1-.16 2.34c.23.61 1.25 2.9 3.44 2.86h.03c.32 0 3.14-.19 3.03-5.13h.01l-.1-.1a1.7 1.7 0 0 1-.03-2.73zm1.2 7.93A2.8 2.8 0 0 0 9.37 15a2.82 2.82 0 0 0 2.68 2.95 2.85 2.85 0 0 0 2.85-2.85c0-1.55-1.18-2.8-2.68-2.86zm-.18.8.62 1.26 1.37.2-1 .97.24 1.37-1.23-.65-1.23.65.23-1.37-1-.97 1.38-.2.62-1.25z" /></symbol><symbol viewBox="0 0 24 24" id="promo"><path fill="#b81a0a" d="M11.19 2.66c.43-.56 1.14-.56 1.57 0l1.9 2.45 3.07-.69c.7-.16 1.24.29 1.2.99l-.17 3.06 2.81 1.4c.64.32.77 1 .28 1.5l-2.15 2.26 1.23 2.82c.28.65-.07 1.25-.79 1.33l-3.12.38-.92 2.93c-.22.68-.88.91-1.48.53l-2.65-1.67-2.64 1.67c-.6.38-1.27.15-1.48-.53l-.92-2.93-3.12-.38c-.72-.08-1.07-.68-.8-1.33l1.24-2.82-2.15-2.25c-.49-.51-.37-1.2.27-1.51l2.81-1.4-.16-3.06c-.04-.7.5-1.15 1.2-.99l3.07.7zm3.24 10.11c-.5 0-.91.17-1.26.51-.35.34-.52.75-.52 1.23s.17.89.52 1.23c.35.34.77.5 1.26.5s.9-.16 1.25-.5c.35-.35.52-.76.52-1.23 0-.48-.17-.89-.52-1.22a1.7 1.7 0 0 0-1.25-.52zM14.22 9H12.7l-3.01 7.1h1.5zm.2 4.84c.46 0 .69.22.69.67 0 .45-.23.67-.68.67-.46 0-.69-.22-.69-.67 0-.45.23-.67.69-.67zm-4.9-4.98c-.5 0-.91.17-1.26.5-.34.35-.52.76-.52 1.23 0 .48.18.89.52 1.22.35.34.77.51 1.26.51.48 0 .9-.17 1.25-.5.34-.34.52-.75.52-1.23s-.18-.89-.52-1.23c-.34-.33-.76-.5-1.25-.5zm0 1.06c.45 0 .67.22.67.66 0 .45-.22.68-.67.68-.46 0-.69-.23-.69-.67 0-.45.23-.67.69-.67z" /></symbol><symbol viewBox="0 0 24 24" id="truck"><path fill-rule="evenodd" d="M19.2 8.3h-2.9V17H23v-4.7l-3.8-3.9Zm-.9 1H17v3h4.3l-3-3Z" fill="#FCD4B4" /><path d="M7 16.5a1.6 1.6 0 1 1-3.3 0 1.6 1.6 0 0 1 3.3 0Zm14.3 0a1.6 1.6 0 1 1-3.3 0 1.6 1.6 0 0 1 3.3 0Z" fill="#fff" stroke="#F68B1E" stroke-width="1.5" /><path d="M16.3 17H7.6a2.4 2.4 0 0 0-2.3-3A2.4 2.4 0 0 0 3 17H1V5.1c0-.4.3-.7.6-.7h14.1c.3 0 .6.3.6.7V17Z" fill="#F68B1E" /></symbol></defs></svg>