<svg xmlns="http://www.w3.org/2000/svg" xmlns:xlink="http://www.w3.org/1999/xlink"><defs><symbol viewBox="0 0 24 24" id="app"><path d="m19.38 9.54-1.85 1.8-1.84 1.8.87 5.08-4.56-2.4-4.56 2.4.87-5.08-1.84-1.8-1.85-1.8 5.1-.74L12 4.18l2.28 4.62 5.1.74zm.34-3.9A9.98 9.98 0 0 0 12 2a9.98 9.98 0 0 0-7.72 3.64A9.95 9.95 0 0 0 2 12a9.95 9.95 0 0 0 3.64 7.71A9.96 9.96 0 0 0 12 22c2.42 0 4.63-.86 6.36-2.29a10.08 10.08 0 0 0 1.93-2.12 9.95 9.95 0 0 0 1.71-5.6 10 10 0 0 0-2.28-6.35z" /></symbol><symbol viewBox="0 0 114 12" id="express"><path fill="#282828" d="M12.85 9.31c-.5.35-1.27.52-2.46.52H8.17c-.25 0-.5 0-.68-.08-.25-.1-.42-.1-.68-.18a1.53 1.53 0 0 1-.6-.43c-.17-.18-.25-.35-.42-.61-.09-.26-.17-.52-.17-.87V2.09h1.45v5.48c0 .61.5.87 1.61.87h1.96c1.02 0 1.53-.26 1.53-.87V2.09h1.45v5.57c0 .7-.25 1.3-.77 1.65zm11.58.61V4.87l-3.06 4.7c-.09.18-.26.26-.34.35-.17.09-.26.09-.43.09-.34 0-.6-.18-.85-.52l-3.15-4.7v5.13h-1.45V2.87a.8.8 0 0 1 .26-.6c.17-.18.34-.27.5-.27.35 0 .6.17.78.44L20.52 8l3.74-5.57a.89.89 0 0 1 .77-.44c.25 0 .42.09.6.26.16.18.25.35.25.7v6.96h-1.45zm2.81-.09V2h1.45v7.83h-1.45zM34.9 4l-1.36 2.35h2.72L34.9 4zm3.5 5.92l-1.2-2.09h-4.43l-1.19 2.09h-1.7l4.26-7.31a.9.9 0 0 1 .76-.52c.34 0 .6.17.85.52l4.18 7.31h-1.54zM4.33 6.35c0 2.35-.85 3.4-2.38 3.74-1.45.35-1.96.35-1.96.35V8.8c.6 0 1.45-.18 2.04-.35.51-.17.94-.7.85-2.09V2h1.45v4.35z" /><path fill="#F63" d="M57.47 10a4.1 4.1 0 0 1-1.2-.15c-.31-.1-.57-.25-.75-.47-.2-.21-.33-.5-.4-.84A6.05 6.05 0 0 1 55 7.26V4.74c0-.5.04-.92.12-1.27.07-.36.2-.64.4-.85.18-.22.44-.38.76-.47.31-.1.71-.15 1.19-.15h4.46v1.17h-4.46c-.29 0-.51.03-.69.08a.8.8 0 0 0-.4.26c-.1.12-.17.28-.21.48-.04.2-.05.45-.05.75v.67h5.81v1.15h-5.81v.7c0 .32.01.58.05.78.04.2.1.35.2.47s.24.2.41.25c.18.04.4.07.69.07h4.5V10h-4.5zm12.69 0l-3.02-3.25L64.09 10h-1.64l3.92-4.13L62.67 2h1.68l2.84 3.05L70.15 2h1.6l-3.72 3.87L71.86 10h-1.7zm8.85-5.45a3 3 0 0 0-.06-.68.85.85 0 0 0-.22-.42.83.83 0 0 0-.4-.2 2.64 2.64 0 0 0-.6-.07h-4.07v3.35h4.09c.24 0 .44-.02.6-.05a.8.8 0 0 0 .39-.2c.1-.1.17-.22.2-.4.05-.16.07-.38.07-.64v-.7zm-5.35 3.1V10h-1.12V2.01h5.2c.46 0 .84.05 1.14.14.3.09.55.23.74.44.18.2.32.46.4.78.07.32.1.71.1 1.18v.68c0 .47-.03.86-.1 1.17-.08.3-.2.55-.39.74-.18.19-.43.32-.73.4-.31.07-.7.1-1.16.1h-4.08zm13.9-3.27c0-.26-.02-.47-.06-.63a.67.67 0 0 0-.22-.37.93.93 0 0 0-.45-.18 4.68 4.68 0 0 0-.74-.05H82.2v3h3.9c.29 0 .53-.02.72-.06.19-.03.34-.09.45-.18a.7.7 0 0 0 .22-.38c.04-.16.06-.38.06-.64v-.5zM86.62 10L82.2 7.08V10h-1.12V2h5.01c.44 0 .83.03 1.15.1a1.52 1.52 0 0 1 1.28 1.07c.1.3.15.71.15 1.21v.5c0 .46-.05.84-.15 1.14a1.6 1.6 0 0 1-1.28 1.1c-.32.07-.7.11-1.15.11h-1.66L88.76 10h-2.13zm5.4 0a4.1 4.1 0 0 1-1.19-.15c-.31-.1-.57-.25-.76-.47-.19-.21-.32-.5-.4-.84a6.05 6.05 0 0 1-.11-1.28V4.74c0-.5.04-.92.11-1.27.08-.36.21-.64.4-.85.2-.22.45-.38.76-.47.32-.1.72-.15 1.2-.15h4.46v1.17h-4.47c-.28 0-.5.03-.68.08a.8.8 0 0 0-.41.26c-.1.12-.17.28-.2.48-.04.2-.05.45-.05.75v.67h5.81v1.15H90.7v.7c0 .32.01.58.05.78.03.2.1.35.2.47s.24.2.41.25c.17.04.4.07.68.07h4.51V10h-4.5zm5.3 0V8.83h5.02c.32 0 .55-.06.7-.17.13-.1.2-.34.2-.69v-.59c0-.32-.07-.55-.2-.68-.15-.12-.38-.18-.7-.18H99.1c-.34 0-.63-.04-.86-.13a1.22 1.22 0 0 1-.82-.98 4.25 4.25 0 0 1-.08-.86V4.2c0-.41.03-.75.1-1.03.06-.28.16-.5.3-.68.15-.18.33-.3.55-.38.23-.08.5-.12.81-.12h5.19v1.17h-5.11c-.28 0-.48.07-.61.2-.13.14-.2.41-.2.84v.34c0 .32.06.54.17.66.12.12.33.18.62.18h3.2c.35 0 .65.04.9.11.24.08.44.2.6.36.15.16.26.37.32.62.07.25.1.55.1.9v.6c0 .36-.03.67-.1.92-.06.26-.17.47-.33.63-.15.17-.35.28-.6.36a3.1 3.1 0 0 1-.9.11h-5.02zm7.72 0V8.83h5.01c.32 0 .56-.06.7-.17.14-.1.2-.34.2-.69v-.59c0-.32-.06-.55-.2-.68-.14-.12-.37-.18-.69-.18h-3.25c-.35 0-.64-.04-.86-.13a1.22 1.22 0 0 1-.83-.98 4.25 4.25 0 0 1-.07-.86V4.2c0-.41.03-.75.1-1.03.06-.28.16-.5.3-.68.14-.18.32-.3.55-.38.22-.08.5-.12.8-.12h5.09v1.17h-5c-.28 0-.48.07-.62.2-.13.14-.2.41-.2.84v.34c0 .32.06.54.18.66s.32.18.62.18h3.2c.35 0 .65.04.89.11.24.08.44.2.6.36.15.16.26.37.33.62s.1.55.1.9v.6c0 .36-.03.67-.1.92-.07.26-.18.47-.33.63-.16.17-.36.28-.6.36a3.1 3.1 0 0 1-.9.11h-5.02zm-52.1-8.96c.04.05.06.12.04.2l-2.83 7.6a.18.18 0 0 1-.1.1.17.17 0 0 1-.14 0l-2.87-.65-1.01 2.65a.17.17 0 0 1-.18.05.18.18 0 0 1-.12-.15l.04-2.97c0-.05.09-.14.12-.18l4.98-4.65-6.43 4.56a.17.17 0 0 1-.18.01L41.1 6.52a.18.18 0 0 1-.1-.16c0-.07.04-.13.1-.16l11.66-5.18a.17.17 0 0 1 .18.02z" /></symbol><symbol viewBox="0 0 110 12" id="global"><path fill="#282828" d="M12.85 8.6c-.5.34-1.27.52-2.46.52H8.17c-.25 0-.5 0-.68-.09-.25-.08-.42-.08-.68-.17-.25-.09-.42-.26-.6-.44-.17-.17-.25-.35-.42-.6a2.62 2.62 0 0 1-.17-.88V1.37h1.45v5.49c0 .6.5.87 1.61.87h1.96c1.02 0 1.53-.27 1.53-.87V1.37h1.45v5.57c0 .7-.25 1.3-.77 1.66zm11.58.6V4.17l-3.06 4.7c-.09.17-.26.26-.34.35-.17.08-.26.08-.43.08-.34 0-.6-.17-.85-.52l-3.15-4.7v5.14h-1.45V2.16a.8.8 0 0 1 .26-.61c.17-.18.34-.26.5-.26.35 0 .6.17.78.43l3.83 5.57 3.74-5.57a.89.89 0 0 1 .77-.43c.25 0 .42.08.6.26.16.17.25.35.25.7V9.2h-1.45zm2.81-.08V1.29h1.45v7.83h-1.45zm7.66-5.83l-1.36 2.35h2.73L34.9 3.29zm3.5 5.92l-1.2-2.1h-4.43l-1.19 2.1h-1.7l4.26-7.32a.9.9 0 0 1 .76-.52c.34 0 .6.18.85.52l4.17 7.31H38.4zM4.33 5.64c0 2.35-.85 3.4-2.38 3.74C.5 9.73 0 9.73 0 9.73V8.07c.6 0 1.45-.17 2.04-.34.51-.18.94-.7.85-2.1V1.3h1.45v4.35z" /><path fill="#0040CE" d="M62.77 6.5h-2.3V5.36h3.49V7.3c0 .5-.04.92-.12 1.27a1.75 1.75 0 0 1-.43.83 1.78 1.78 0 0 1-.82.46c-.34.1-.76.14-1.27.14h-2.7c-.5 0-.93-.05-1.27-.14-.33-.1-.6-.25-.8-.46-.2-.21-.35-.49-.43-.83A5.5 5.5 0 0 1 56 7.3V4.84c0-.49.04-.9.12-1.25.09-.35.23-.63.43-.84.2-.2.47-.36.8-.46.34-.1.77-.14 1.27-.14h5.34V3.3h-5.34c-.28 0-.52.03-.7.08a.9.9 0 0 0-.45.25.98.98 0 0 0-.22.47 3.66 3.66 0 0 0-.06.74V7.3c0 .32.02.59.07.8a.95.95 0 0 0 .23.46c.1.11.25.19.43.23.19.04.42.06.7.06h2.73c.26 0 .49-.02.67-.06a.84.84 0 0 0 .44-.23 1 1 0 0 0 .24-.5c.05-.21.07-.5.07-.86v-.7zm5.12 3.5c-.5 0-.93-.05-1.26-.14-.34-.1-.61-.25-.81-.46-.2-.22-.35-.5-.43-.84a5.5 5.5 0 0 1-.12-1.26V2.14h1.19V7.3c0 .28.02.52.06.71.05.2.13.36.24.48a.99.99 0 0 0 .47.27c.2.06.46.09.76.09h4.11V10h-4.21zm11.74-5.16c0-.3-.02-.55-.07-.75a.98.98 0 0 0-.23-.48.89.89 0 0 0-.44-.24 2.94 2.94 0 0 0-.7-.07h-2.6c-.3 0-.55.03-.74.07a.83.83 0 0 0-.43.24.93.93 0 0 0-.2.48c-.04.2-.06.45-.06.75V7.3c0 .33.02.59.05.79.04.2.1.35.2.46a.81.81 0 0 0 .44.23c.19.05.44.07.74.07h2.6c.29 0 .52-.02.7-.07a.87.87 0 0 0 .44-.23.94.94 0 0 0 .23-.46c.05-.2.07-.46.07-.79V4.84zM75.59 10c-.5 0-.93-.05-1.26-.14-.34-.1-.61-.25-.81-.46-.2-.22-.34-.5-.43-.83a5.5 5.5 0 0 1-.12-1.26V4.84c0-.49.04-.9.12-1.25.09-.35.23-.62.43-.84.2-.2.47-.36.8-.46.34-.1.77-.14 1.27-.14h2.6c.51 0 .93.05 1.27.14.34.1.6.25.81.46.2.21.34.5.42.84.09.34.13.76.13 1.25v2.47c0 .5-.04.92-.13 1.26-.08.34-.22.61-.42.83-.2.2-.47.36-.8.46-.35.1-.77.14-1.28.14h-2.6zm7.83-3.52v2.39h4.71c.37 0 .63-.05.78-.15.16-.1.23-.3.23-.6v-.6c0-.22-.01-.4-.04-.53a.65.65 0 0 0-.16-.31.58.58 0 0 0-.3-.16 2.1 2.1 0 0 0-.44-.04h-4.78zm0-3.24v2.23h4.78c.34 0 .56-.06.68-.18.11-.13.17-.35.17-.68V4c0-.3-.07-.5-.22-.6-.15-.1-.44-.15-.86-.15h-4.55zm-1.19-1.1h5.74c.4 0 .74.03 1.02.1.28.05.5.15.69.3.17.14.3.32.38.55.08.23.12.5.12.84v.62c0 .46-.08.8-.23 1a1.05 1.05 0 0 1-.61.4c.3.05.53.2.69.45.16.24.24.65.24 1.21v.67c0 .32-.04.59-.12.8-.08.22-.2.4-.37.53-.17.14-.4.24-.67.3a4.59 4.59 0 0 1-.99.09h-5.89V2.14zm11.5 4.83h4l-2-3.55-2 3.55zm4.61 1.08h-5.22L92.02 10h-1.4l4.22-7.4c.1-.18.2-.32.34-.43a.86.86 0 0 1 .57-.17c.24 0 .43.06.56.17.14.1.26.25.35.43l4.2 7.4h-1.41l-1.1-1.95zM103.8 10c-.5 0-.93-.05-1.26-.14-.34-.1-.61-.25-.81-.46-.2-.22-.35-.5-.43-.84a5.5 5.5 0 0 1-.12-1.26V2.14h1.19V7.3c0 .28.02.52.06.71.05.2.13.36.24.48a.99.99 0 0 0 .47.27c.2.06.46.09.76.09H108V10h-4.21z" /><path fill="#0040CE" d="M54.03 2.45c-.54.48-2.94 2.51-2.94 2.51l1.43 5.22-1.12.82-2.25-4.12-2.56 2.03.2 1.81-.73.28-.85-1.7-2.19-1.04.56-.65 1.86.1 2.14-2.19L43 3.32l.85-.87 5.94 1.27s1.8-1.53 2.65-2.43c.84-.87 2.43.41 1.59 1.16z" /></symbol><symbol fill="none" viewBox="0 0 172 30" id="logo"><path fill="#282828" d="M43.73 19.5c0 1.81-1.72 2.69-5.24 2.69h-6.9c-3.6 0-5.34-.88-5.34-2.7V0H20.4v19.8a8.75 8.75 0 0 0 .56 3.27 6.8 6.8 0 0 0 1.54 2.29c.6.62 1.33 1.12 2.13 1.46a15.17 15.17 0 0 0 5.1 1.1h8.1c4.03 0 7-.67 8.87-2a7.12 7.12 0 0 0 2.86-6.15V0h-5.83v19.5ZM89.86 0a3.43 3.43 0 0 0-3.07 1.54l-13.12 19.2-13.49-19.2A3.63 3.63 0 0 0 57.11 0a2.95 2.95 0 0 0-2.9 2.04c-.15.42-.22.87-.2 1.31v24.87h5.84V11.07l10.48 15.55a3.84 3.84 0 0 0 3.32 1.86c.63 0 1.24-.17 1.79-.48.62-.32 1.15-.8 1.54-1.38L87.3 11.24v16.98h5.83V3.62a3.74 3.74 0 0 0-.88-2.6A2.97 2.97 0 0 0 89.86 0Zm13.34 0h-5.82v28.02h5.83V0Zm25.38 1.98a3.55 3.55 0 0 0-6.38 0l-15.62 26.14h6.87l4.15-7.4h15.38l4.24 7.4h6.58L128.58 1.98Zm.98 12.97h-8.6l4.25-7.12 4.35 7.12ZM10.55 5.47l-.1 10.03c.16 5.07-1.53 6.37-2.92 6.9a27.17 27.17 0 0 1-7.2 1.23H0v6.35h.42c2.38-.17 4.74-.55 7.05-1.15 6.02-1.3 8.7-5.43 8.7-13.36L16.36 0h-5.8l-.02 5.47Z" /><path fill="#F90" d="M157.72.52a13.71 13.71 0 1 0 0 27.43 13.71 13.71 0 0 0 0-27.43Zm6.26 22.24-6.26-3.28-6.26 3.28 1.2-6.97-5.04-4.92 7-1.01 3.07-6.35 3.07 6.35 7 1.01-5.04 4.92 1.26 6.97Z" /></symbol></defs></svg>