<svg width="18" height="19" viewBox="0 0 18 19" fill="none" xmlns="http://www.w3.org/2000/svg">
<g clip-path="url(#clip0_280_4621)">
<path d="M18 9.81738C18 4.84682 13.9706 0.817383 9 0.817383C4.02943 0.817383 0 4.84682 0 9.81738C0 14.3095 3.29115 18.0329 7.59375 18.708V12.4189H5.30859V9.81738H7.59375V7.83457C7.59375 5.57895 8.93742 4.33301 10.9932 4.33301C11.9776 4.33301 13.0078 4.50879 13.0078 4.50879V6.72363H11.873C10.755 6.72363 10.4062 7.41744 10.4062 8.12988V9.81738H12.9023L12.5033 12.4189H10.4062V18.708C14.7088 18.0329 18 14.3095 18 9.81738Z" fill="white"/>
</g>
<defs>
<clipPath id="clip0_280_4621">
<rect width="18" height="18" fill="white" transform="translate(0 0.817383)"/>
</clipPath>
</defs>
</svg>
