<svg width="18" height="19" viewBox="0 0 18 19" fill="none" xmlns="http://www.w3.org/2000/svg">
<g clip-path="url(#clip0_280_4623)">
<path d="M9 2.43809C11.4047 2.43809 11.6895 2.44863 12.6352 2.49082C13.5141 2.52949 13.9887 2.67715 14.3051 2.8002C14.7234 2.96191 15.0258 3.15879 15.3387 3.47168C15.6551 3.78809 15.8484 4.08691 16.0102 4.50527C16.1332 4.82168 16.2809 5.2998 16.3195 6.17519C16.3617 7.12441 16.3723 7.40918 16.3723 9.81035C16.3723 12.215 16.3617 12.4998 16.3195 13.4455C16.2809 14.3244 16.1332 14.799 16.0102 15.1154C15.8484 15.5338 15.6516 15.8361 15.3387 16.149C15.0223 16.4654 14.7234 16.6588 14.3051 16.8205C13.9887 16.9436 13.5105 17.0912 12.6352 17.1299C11.6859 17.1721 11.4012 17.1826 9 17.1826C6.59531 17.1826 6.31055 17.1721 5.36484 17.1299C4.48594 17.0912 4.01133 16.9436 3.69492 16.8205C3.27656 16.6588 2.97422 16.4619 2.66133 16.149C2.34492 15.8326 2.15156 15.5338 1.98984 15.1154C1.8668 14.799 1.71914 14.3209 1.68047 13.4455C1.63828 12.4963 1.62773 12.2115 1.62773 9.81035C1.62773 7.40566 1.63828 7.1209 1.68047 6.17519C1.71914 5.29629 1.8668 4.82168 1.98984 4.50527C2.15156 4.08691 2.34844 3.78457 2.66133 3.47168C2.97773 3.15527 3.27656 2.96191 3.69492 2.8002C4.01133 2.67715 4.48945 2.52949 5.36484 2.49082C6.31055 2.44863 6.59531 2.43809 9 2.43809ZM9 0.817383C6.55664 0.817383 6.25078 0.82793 5.29102 0.870117C4.33477 0.912305 3.67734 1.06699 3.10781 1.28848C2.51367 1.52051 2.01094 1.82637 1.51172 2.3291C1.00898 2.82832 0.703125 3.33105 0.471094 3.92168C0.249609 4.49473 0.0949219 5.14863 0.0527344 6.10488C0.0105469 7.06816 0 7.37402 0 9.81738C0 12.2607 0.0105469 12.5666 0.0527344 13.5264C0.0949219 14.4826 0.249609 15.14 0.471094 15.7096C0.703125 16.3037 1.00898 16.8064 1.51172 17.3057C2.01094 17.8049 2.51367 18.1143 3.1043 18.3428C3.67734 18.5643 4.33125 18.7189 5.2875 18.7611C6.24727 18.8033 6.55312 18.8139 8.99648 18.8139C11.4398 18.8139 11.7457 18.8033 12.7055 18.7611C13.6617 18.7189 14.3191 18.5643 14.8887 18.3428C15.4793 18.1143 15.982 17.8049 16.4813 17.3057C16.9805 16.8064 17.2898 16.3037 17.5184 15.7131C17.7398 15.14 17.8945 14.4861 17.9367 13.5299C17.9789 12.5701 17.9895 12.2643 17.9895 9.8209C17.9895 7.37754 17.9789 7.07168 17.9367 6.11191C17.8945 5.15566 17.7398 4.49824 17.5184 3.92871C17.2969 3.33105 16.991 2.82832 16.4883 2.3291C15.9891 1.82988 15.4863 1.52051 14.8957 1.29199C14.3227 1.07051 13.6688 0.91582 12.7125 0.873633C11.7492 0.82793 11.4434 0.817383 9 0.817383Z" fill="white"/>
<path d="M9 5.19434C6.44766 5.19434 4.37695 7.26504 4.37695 9.81738C4.37695 12.3697 6.44766 14.4404 9 14.4404C11.5523 14.4404 13.623 12.3697 13.623 9.81738C13.623 7.26504 11.5523 5.19434 9 5.19434ZM9 12.8162C7.34414 12.8162 6.00117 11.4732 6.00117 9.81738C6.00117 8.16152 7.34414 6.81855 9 6.81855C10.6559 6.81855 11.9988 8.16152 11.9988 9.81738C11.9988 11.4732 10.6559 12.8162 9 12.8162Z" fill="white"/>
<path d="M14.8852 5.01143C14.8852 5.60908 14.4 6.09072 13.8059 6.09072C13.2082 6.09072 12.7266 5.60557 12.7266 5.01143C12.7266 4.41377 13.2117 3.93213 13.8059 3.93213C14.4 3.93213 14.8852 4.41729 14.8852 5.01143Z" fill="white"/>
</g>
<defs>
<clipPath id="clip0_280_4623">
<rect width="18" height="18" fill="white" transform="translate(0 0.817383)"/>
</clipPath>
</defs>
</svg>
