<svg width="18" height="19" viewBox="0 0 18 19" fill="none" xmlns="http://www.w3.org/2000/svg">
<g clip-path="url(#clip0_280_4624)">
<path d="M16.6676 0.817383H1.32891C0.594141 0.817383 0 1.39746 0 2.11465V17.5166C0 18.2338 0.594141 18.8174 1.32891 18.8174H16.6676C17.4023 18.8174 18 18.2338 18 17.5201V2.11465C18 1.39746 17.4023 0.817383 16.6676 0.817383ZM5.34023 16.1561H2.66836V7.56387H5.34023V16.1561ZM4.0043 6.39316C3.14648 6.39316 2.45391 5.70059 2.45391 4.84629C2.45391 3.99199 3.14648 3.29941 4.0043 3.29941C4.85859 3.29941 5.55117 3.99199 5.55117 4.84629C5.55117 5.69707 4.85859 6.39316 4.0043 6.39316ZM15.3387 16.1561H12.6703V11.9795C12.6703 10.9846 12.6527 9.70137 11.2816 9.70137C9.89297 9.70137 9.68203 10.7877 9.68203 11.9092V16.1561H7.01719V7.56387H9.57656V8.73809H9.61172C9.9668 8.06309 10.8387 7.34941 12.1359 7.34941C14.8395 7.34941 15.3387 9.12832 15.3387 11.4416V16.1561Z" fill="white"/>
</g>
<defs>
<clipPath id="clip0_280_4624">
<rect width="18" height="18" fill="white" transform="translate(0 0.817383)"/>
</clipPath>
</defs>
</svg>
