<svg width="18" height="19" viewBox="0 0 18 19" fill="none" xmlns="http://www.w3.org/2000/svg">
<g clip-path="url(#clip0_280_4622)">
<path d="M5.66262 17.1299C12.4534 17.1299 16.1687 11.5025 16.1687 6.62384C16.1687 6.46564 16.1652 6.30392 16.1582 6.14571C16.8809 5.62304 17.5046 4.97563 18 4.23392C17.3269 4.53339 16.6122 4.72898 15.8804 4.814C16.651 4.35213 17.2279 3.62655 17.5043 2.77177C16.7794 3.20136 15.9867 3.5044 15.1601 3.6679C14.6031 3.07611 13.8667 2.68428 13.0648 2.55298C12.2628 2.42168 11.4399 2.55823 10.7233 2.94152C10.0067 3.3248 9.43635 3.93347 9.10039 4.67343C8.76442 5.41338 8.68157 6.24341 8.86465 7.03517C7.39687 6.96151 5.96095 6.58022 4.64999 5.91602C3.33902 5.25181 2.18227 4.31952 1.25473 3.17958C0.7833 3.99238 0.639042 4.95418 0.851273 5.86951C1.0635 6.78485 1.6163 7.58503 2.3973 8.10743C1.81097 8.08882 1.23748 7.93095 0.724219 7.64689V7.69259C0.723693 8.54556 1.01857 9.37238 1.55873 10.0325C2.09889 10.6927 2.85099 11.1454 3.68719 11.3137C3.14404 11.4623 2.57399 11.4839 2.02113 11.377C2.25709 12.1105 2.71618 12.7521 3.33433 13.2122C3.95248 13.6723 4.69884 13.9279 5.46926 13.9434C4.16132 14.9708 2.54563 15.528 0.882422 15.5254C0.587465 15.525 0.292799 15.5069 0 15.4713C1.68964 16.5553 3.65515 17.131 5.66262 17.1299Z" fill="white"/>
</g>
<defs>
<clipPath id="clip0_280_4622">
<rect width="18" height="18" fill="white" transform="translate(0 0.817383)"/>
</clipPath>
</defs>
</svg>
